<svg xmlns="http://www.w3.org/2000/svg" viewBox="0 0 659.71 153.08"><defs><style>.cls-1{fill:#b22234;}.cls-2{fill:#002647;}</style></defs><title>FULLCOLORICON-ALT2Asset 3svg</title><g id="Layer_2" data-name="Layer 2"><g id="Layer_1-2" data-name="Layer 1"><path class="cls-1" d="M112.75,104.55c-3.18-10.18-3.18-10.18,6.22-17.07,15.2-11.14,39.69-28.77,39.69-28.77s-30.18.12-49,0c-11.66,0-11.66,0-15.07-10.14C88.08,29.39,79.23,0,79.23,0l-7.6,27.47C64,55.7,63.17,55.68,73.23,65.13L86.1,77.23l19.54-6.35c7.07-2.3,15.13-1.7,15.67,0s-5.62,6.89-12.69,9.18L89.07,86.37l-3.3,17.36c-2.58,13.56-2.67,13.76,20,32l22.51,17.36S118.79,123.91,112.75,104.55Z"/><path class="cls-2" d="M71.74,82.54C60.93,60.69,58.88,59.22,32.58,59.3H0S32.55,83,34.44,84.32c1.63,1.15,9.81,7.18,19.38,4.07l1.33-.46Z"/><path class="cls-2" d="M74.71,91.69,58.13,97.08s-.52.17-1.36.41c-9.56,3.11-12.63,12.8-13.28,14.69-.74,2.19-13.15,40.49-13.15,40.49l26.35-19.15C78,118.12,78.81,115.72,74.71,91.69Z"/><path class="cls-2" d="M184.61,53.45h14.14l26.41,69.2,26.54-69.2h14.13L233,136.17h-15.5Z"/><path class="cls-2" d="M321.64,119.05H281.09l-6.7,17.12H260.75l32.87-82.72h15.5L342,136.17H328.34Zm-36.95-11h33.36L301.3,64.24Z"/><path class="cls-2" d="M363.93,64.37H338.26V53.45h63.62V64.37H376.33v71.8h-12.4Z"/><path class="cls-2" d="M413,53.45h21.7v48.49c0,9.8,5.21,16.87,16.75,16.87s16.61-7.07,16.61-16.87V53.45h21.7v49.11c0,20.59-11.78,35.1-38.31,35.1S413,123,413,102.68Z"/><path class="cls-2" d="M510,108.51a37.36,37.36,0,0,0,26.42,10.92c7.31,0,11.78-3.1,11.78-7.07,0-4.71-5.34-6.58-14.14-8.44-13.64-2.72-32.74-6.2-32.74-25.79,0-13.89,11.78-25.92,33-25.92,13.27,0,24.8,4,33.61,11.54L556.28,79A38.43,38.43,0,0,0,533,70.44c-7.06,0-9.79,2.85-9.79,6.45,0,4.34,5.08,5.83,14.26,7.57,13.64,2.85,32.49,6.82,32.49,25.54,0,16.62-12.28,27.66-34.47,27.66-16.75,0-28.4-5.21-36.71-13.15Z"/><path class="cls-2" d="M632.3,123.64H598l-4.22,12.53H570.54l31.13-82.72h26.79l31.25,82.72H636.52Zm-28.77-18h23.19L615.06,72.05Z"/></g></g></svg>